<svg width="26" height="23" viewBox="0 0 26 23" fill="none" xmlns="http://www.w3.org/2000/svg">
<path d="M0.507812 1.7422C0.25 2.93751 0.15625 4.51954 0.15625 5.57423C0.15625 14.4453 5.45312 20.3047 13.5391 20.3047C17.5117 20.3047 19.8672 18.5352 21.0391 17.2344C22 18.5938 22.5391 20.0469 23.1484 21.9688C23.3242 22.543 23.7344 22.7774 24.1914 22.7774C25.0938 22.7774 25.832 21.9922 25.832 20.9141C25.832 19.2852 23.4648 16.4258 22.2344 15.2774C17.0195 10.4492 9.09766 13.3438 7.11719 8.09376C6.97656 7.71876 7.36328 7.41407 7.71484 7.76564C11.7812 11.9492 17.0898 8.45704 22.1406 13.0859C22.5859 13.4961 23.1367 13.2852 23.2188 12.8047C23.2773 12.4766 23.3125 11.9375 23.3125 11.3984C23.3125 5.65626 19.3281 2.77345 13.5742 2.77345C11.6758 2.77345 9.44922 3.25392 7.71484 3.25392C5.85156 3.25392 3.74219 3.11329 2.04297 1.32032C1.50391 0.757823 0.707031 0.87501 0.507812 1.7422Z" fill="#8E8E93"/>
</svg>
