<svg width="28" height="27" viewBox="0 0 28 27" fill="none" xmlns="http://www.w3.org/2000/svg">
<path d="M14.0051 14.961L14.0026 14.9609C12.0181 14.9508 10.4219 13.291 10.4219 10.9961L10.4219 10.9936C10.4113 8.84384 12.0269 7.11328 14 7.11328C15.9584 7.11328 17.5664 8.84107 17.5664 10.9961C17.5664 13.2996 15.9643 14.9811 14.0051 14.961ZM14 26.1445C20.8969 26.1445 26.6055 20.4483 26.6055 13.5391C26.6055 6.64151 20.8969 0.933594 13.9883 0.933594C7.09042 0.933594 1.39453 6.64246 1.39453 13.5391C1.39453 20.4483 7.10308 26.1445 14 26.1445ZM14 23.1641C11.6357 23.1641 9.13968 22.2327 7.46792 20.6151C8.75072 18.9783 11.1254 17.9883 14 17.9883C16.8456 17.9883 19.2287 18.9602 20.5209 20.6147C18.8499 22.2329 16.364 23.1641 14 23.1641Z" fill="#8E8E93" stroke="black"/>
</svg>
